<svg width="15" height="18" viewBox="0 0 15 18" fill="none" xmlns="http://www.w3.org/2000/svg">
<path d="M9.27779 10.0185C9.41378 9.90978 9.58739 9.85953 9.76043 9.87881C9.93347 9.89809 10.0918 9.98532 10.2005 10.1213C10.3092 10.2573 10.3594 10.4309 10.3402 10.6039C10.3209 10.777 10.2337 10.9353 10.0977 11.044L7.91542 12.7896C7.79855 12.885 7.6524 12.9372 7.50154 12.9375H7.49454C7.34641 12.9364 7.20301 12.8852 7.08767 12.7922L4.90279 11.044C4.7668 10.9353 4.67957 10.777 4.66029 10.6039C4.64101 10.4309 4.69126 10.2573 4.79998 10.1213C4.9087 9.98532 5.06699 9.89809 5.24003 9.87881C5.41307 9.85953 5.58668 9.90978 5.72267 10.0185L6.84354 10.9162V7.90625C6.84354 7.7322 6.91268 7.56528 7.03575 7.44221C7.15882 7.31914 7.32574 7.25 7.49979 7.25C7.67384 7.25 7.84076 7.31914 7.96383 7.44221C8.0869 7.56528 8.15604 7.7322 8.15604 7.90625V10.9162L9.27779 10.0185Z" fill="#505050"/>
<path fill-rule="evenodd" clip-rule="evenodd" d="M3.125 0.46875C2.48682 0.46875 1.87478 0.722265 1.42352 1.17352C0.972265 1.62478 0.71875 2.23682 0.71875 2.875V15.125C0.71875 15.7632 0.972265 16.3752 1.42352 16.8265C1.87478 17.2777 2.48682 17.5312 3.125 17.5312H11.875C12.5132 17.5312 13.1252 17.2777 13.5765 16.8265C14.0277 16.3752 14.2813 15.7632 14.2813 15.125V5.67325C14.2812 5.35306 14.1809 5.04093 13.9943 4.78075L11.357 1.1075C11.2153 0.909986 11.0287 0.749038 10.8125 0.637966C10.5962 0.526894 10.3567 0.46889 10.1136 0.46875H3.125ZM2.03125 2.875C2.03125 2.27125 2.52125 1.78125 3.125 1.78125H9.46875V5.62863C9.46875 5.99088 9.76275 6.28488 10.125 6.28488H12.9688V15.125C12.9688 15.7287 12.4788 16.2188 11.875 16.2188H3.125C2.52125 16.2188 2.03125 15.7287 2.03125 15.125V2.875Z" fill="#505050"/>
</svg>
