<svg width="35" height="35" viewBox="0 0 35 35" fill="none" xmlns="http://www.w3.org/2000/svg">
<rect width="35" height="35" rx="3" fill="#F2F2F2"/>
<path d="M19.2778 19.0185C19.4138 18.9098 19.5874 18.8595 19.7604 18.8788C19.9335 18.8981 20.0918 18.9853 20.2005 19.1213C20.3092 19.2573 20.3594 19.4309 20.3402 19.6039C20.3209 19.777 20.2337 19.9353 20.0977 20.044L17.9154 21.7896C17.7986 21.885 17.6524 21.9372 17.5015 21.9375H17.4945C17.3464 21.9364 17.203 21.8852 17.0877 21.7922L14.9028 20.044C14.7668 19.9353 14.6796 19.777 14.6603 19.6039C14.641 19.4309 14.6913 19.2573 14.8 19.1213C14.9087 18.9853 15.067 18.8981 15.24 18.8788C15.4131 18.8595 15.5867 18.9098 15.7227 19.0185L16.8435 19.9162V16.9062C16.8435 16.7322 16.9127 16.5653 17.0358 16.4422C17.1588 16.3191 17.3257 16.25 17.4998 16.25C17.6738 16.25 17.8408 16.3191 17.9638 16.4422C18.0869 16.5653 18.156 16.7322 18.156 16.9062V19.9162L19.2778 19.0185Z" fill="#505050"/>
<path fill-rule="evenodd" clip-rule="evenodd" d="M13.125 9.46875C12.4868 9.46875 11.8748 9.72226 11.4235 10.1735C10.9723 10.6248 10.7188 11.2368 10.7188 11.875V24.125C10.7188 24.7632 10.9723 25.3752 11.4235 25.8265C11.8748 26.2777 12.4868 26.5312 13.125 26.5312H21.875C22.5132 26.5312 23.1252 26.2777 23.5765 25.8265C24.0277 25.3752 24.2813 24.7632 24.2813 24.125V14.6733C24.2812 14.3531 24.1809 14.0409 23.9943 13.7807L21.357 10.1075C21.2153 9.90999 21.0287 9.74904 20.8125 9.63797C20.5962 9.52689 20.3567 9.46889 20.1136 9.46875H13.125ZM12.0313 11.875C12.0313 11.2713 12.5213 10.7812 13.125 10.7812H19.4688V14.6286C19.4688 14.9909 19.7628 15.2849 20.125 15.2849H22.9688V24.125C22.9688 24.7288 22.4788 25.2188 21.875 25.2188H13.125C12.5213 25.2188 12.0313 24.7288 12.0313 24.125V11.875Z" fill="#505050"/>
</svg>
