<svg width="17" height="17" viewBox="0 0 17 17" fill="none" xmlns="http://www.w3.org/2000/svg">
<g clip-path="url(#clip0_330_1912)">
<path d="M8.53 15.5091C9.44651 15.5091 10.354 15.3286 11.2008 14.9778C12.0475 14.6271 12.8169 14.113 13.465 13.465C14.113 12.8169 14.6271 12.0475 14.9778 11.2008C15.3286 10.354 15.5091 9.44651 15.5091 8.53C15.5091 7.61349 15.3286 6.70596 14.9778 5.85922C14.6271 5.01247 14.113 4.24311 13.465 3.59504C12.8169 2.94697 12.0475 2.43289 11.2008 2.08216C10.354 1.73143 9.44651 1.55091 8.53 1.55091C6.67903 1.55091 4.90387 2.2862 3.59504 3.59504C2.2862 4.90387 1.55091 6.67903 1.55091 8.53C1.55091 10.381 2.2862 12.1561 3.59504 13.465C4.90387 14.7738 6.67903 15.5091 8.53 15.5091ZM17.06 8.53C17.06 13.2409 13.2409 17.06 8.53 17.06C3.81911 17.06 0 13.2409 0 8.53C0 3.81911 3.81911 0 8.53 0C13.2409 0 17.06 3.81911 17.06 8.53ZM7.75454 12.795V6.97909H9.30545V12.795H7.75454ZM9.30545 5.81591H7.75144V4.2619H9.30545V5.81591Z" fill="#505050"/>
</g>
<defs>
<clipPath id="clip0_330_1912">
<rect width="17" height="17" fill="white"/>
</clipPath>
</defs>
</svg>
