<svg width="35" height="35" viewBox="0 0 35 35" fill="none" xmlns="http://www.w3.org/2000/svg">
<rect width="35" height="35" rx="3" fill="#F2F2F2"/>
<g clip-path="url(#clip0_240_1398)">
<path d="M17.5 23.125C18.2387 23.125 18.9701 22.9795 19.6526 22.6968C20.3351 22.4141 20.9551 21.9998 21.4775 21.4775C21.9998 20.9551 22.4141 20.3351 22.6968 19.6526C22.9795 18.9701 23.125 18.2387 23.125 17.5C23.125 16.7613 22.9795 16.0299 22.6968 15.3474C22.4141 14.6649 21.9998 14.0449 21.4775 13.5225C20.9551 13.0002 20.3351 12.5859 19.6526 12.3032C18.9701 12.0205 18.2387 11.875 17.5 11.875C16.0082 11.875 14.5774 12.4676 13.5225 13.5225C12.4676 14.5774 11.875 16.0082 11.875 17.5C11.875 18.9918 12.4676 20.4226 13.5225 21.4775C14.5774 22.5324 16.0082 23.125 17.5 23.125ZM24.375 17.5C24.375 21.2969 21.2969 24.375 17.5 24.375C13.7031 24.375 10.625 21.2969 10.625 17.5C10.625 13.7031 13.7031 10.625 17.5 10.625C21.2969 10.625 24.375 13.7031 24.375 17.5ZM16.875 20.9375V16.25H18.125V20.9375H16.875ZM18.125 15.3125H16.8725V14.06H18.125V15.3125Z" fill="#505050"/>
</g>
<defs>
<clipPath id="clip0_240_1398">
<rect width="15" height="15" fill="white" transform="translate(10 10)"/>
</clipPath>
</defs>
</svg>
