<svg width="18" height="17" viewBox="0 0 18 17" fill="none" xmlns="http://www.w3.org/2000/svg">
<path d="M8.83657 9.68246C9.54562 9.68246 10.1204 9.10829 10.1204 8.40001C10.1204 7.69173 9.54562 7.11755 8.83657 7.11755C8.12753 7.11755 7.55273 7.69173 7.55273 8.40001C7.55273 9.10829 8.12753 9.68246 8.83657 9.68246Z" fill="white"/>
<path d="M14.902 9.68246C15.611 9.68246 16.1858 9.10829 16.1858 8.40001C16.1858 7.69173 15.611 7.11755 14.902 7.11755C14.193 7.11755 13.6182 7.69173 13.6182 8.40001C13.6182 9.10829 14.193 9.68246 14.902 9.68246Z" fill="white"/>
<path d="M2.77017 9.68246C3.47921 9.68246 4.05401 9.10829 4.05401 8.40001C4.05401 7.69173 3.47921 7.11755 2.77017 7.11755C2.06112 7.11755 1.48633 7.69173 1.48633 8.40001C1.48633 9.10829 2.06112 9.68246 2.77017 9.68246Z" fill="white"/>
</svg>
